<?xml version="1.0" encoding="UTF-8" standalone="no"?>
<!-- Generator: Adobe Illustrator 19.0.0, SVG Export Plug-In . SVG Version: 6.00 Build 0)  -->

<svg
   xmlns:dc="http://purl.org/dc/elements/1.1/"
   xmlns:cc="http://creativecommons.org/ns#"
   xmlns:rdf="http://www.w3.org/1999/02/22-rdf-syntax-ns#"
   xmlns:svg="http://www.w3.org/2000/svg"
   xmlns="http://www.w3.org/2000/svg"
   xmlns:sodipodi="http://sodipodi.sourceforge.net/DTD/sodipodi-0.dtd"
   xmlns:inkscape="http://www.inkscape.org/namespaces/inkscape"
   version="1.1"
   id="Capa_1"
   x="0px"
   y="0px"
   viewBox="0 0 512 512"
   style="enable-background:new 0 0 512 512;"
   xml:space="preserve"
   sodipodi:docname="logo.svg"
   inkscape:version="0.92.4 (5da689c313, 2019-01-14)"><metadata
   id="metadata3841"><rdf:RDF><cc:Work
       rdf:about=""><dc:format>image/svg+xml</dc:format><dc:type
         rdf:resource="http://purl.org/dc/dcmitype/StillImage" /><dc:title></dc:title></cc:Work></rdf:RDF></metadata><defs
   id="defs3839"><clipPath
     clipPathUnits="userSpaceOnUse"
     id="clipPath974"><rect
       style="fill:#7cb342;fill-opacity:1;stroke-width:0.5221616"
       id="rect976"
       width="82.079102"
       height="97.988701"
       x="256"
       y="37.966099"
       rx="0"
       ry="0" /></clipPath><clipPath
     clipPathUnits="userSpaceOnUse"
     id="clipPath982"><polygon
       transform="matrix(1.1104086,0,0,1.1064967,-28.264599,-24.262535)"
       id="polygon984"
       points="301.941,318.09 330.333,230.706 256,176.7 181.667,230.706 210.059,318.09 "
       style="fill:#555a66" /></clipPath></defs><sodipodi:namedview
   pagecolor="#ffffff"
   bordercolor="#666666"
   borderopacity="1"
   objecttolerance="10"
   gridtolerance="10"
   guidetolerance="10"
   inkscape:pageopacity="0"
   inkscape:pageshadow="2"
   inkscape:window-width="1600"
   inkscape:window-height="877"
   id="namedview3837"
   showgrid="false"
   inkscape:zoom="1"
   inkscape:cx="271.76504"
   inkscape:cy="281.8312"
   inkscape:window-x="1358"
   inkscape:window-y="-8"
   inkscape:window-maximized="1"
   inkscape:current-layer="Capa_1" />

<rect
   id="rect4064"
   width="512"
   height="512"
   x="0"
   y="-7.1054274e-15"
   style="fill:#7cb342;stroke-width:0.99578053;fill-opacity:1"
   ry="136.85876" />
<circle
   style="fill:#ffffff;stroke-width:1.10649359"
   cx="253"
   cy="259"
   id="circle3782"
   r="213" />





<g
   id="g3804">
	
	
<g
   id="g1098"><polygon
     transform="matrix(1.1104086,0,0,1.1064967,-28.264599,-24.262535)"
     id="polygon3786"
     points="181.667,230.706 210.059,318.09 301.941,318.09 330.333,230.706 256,176.7 "
     style="enable-background:new 0 0 512 512;fill:#555a66" /><path
     inkscape:connector-curvature="0"
     id="path3800"
     d="M 89.032044,123.04625 C 58.414265,159.93342 40,207.31459 40,259 c 0,3.72114 0.09738,7.42014 0.285475,11.09481 l 78.090785,-56.73656 z"
     style="fill:#555a66;stroke-width:1.10649359" /><path
     inkscape:connector-curvature="0"
     id="path3802"
     d="M 169.20967,373.43799 H 73.327585 c 28.475615,44.61493 73.112665,77.91041 125.660035,91.64533 z"
     style="fill:#555a66;stroke-width:1.10649359" /><path
     inkscape:connector-curvature="0"
     id="path3800-7"
     d="m 334.15645,60.649543 c -45.15027,-17.67339 -96.57591,-20.491176 -146.36354,-4.467566 -3.58451,1.153636 -7.1171,2.393007 -10.59778,3.711039 l 79.18284,56.653634 z"
     style="fill:#555a66;stroke-width:1.11377442" /></g></g>
<g
   id="g3806">
</g>
<g
   id="g3808">
</g>
<g
   id="g3810">
</g>
<g
   id="g3812">
</g>
<g
   id="g3814">
</g>
<g
   id="g3816">
</g>
<g
   id="g3818">
</g>
<g
   id="g3820">
</g>
<g
   id="g3822">
</g>
<g
   id="g3824">
</g>
<g
   id="g3826">
</g>
<g
   id="g3828">
</g>
<g
   id="g3830">
</g>
<g
   id="g3832">
</g>
<g
   id="g3834">
</g>
<g
   transform="matrix(0.61538462,0,0,1,-67.538458,18)"
   id="g3956"><g
     id="g1091"
     transform="translate(477.74999,-18)"><g
       id="g3906"><path
         id="path3904"
         d="M 449,512 H 63 c -8.284,0 -15,-6.716 -15,-15 V 15 C 48,6.716 54.716,0 63,0 h 386 c 8.284,0 15,6.716 15,15 v 482 c 0,8.284 -6.716,15 -15,15 z"
         style="fill:#fff4f4"
         inkscape:connector-curvature="0" /></g><path
       id="path3908"
       d="M 449,0 H 256 v 512 h 193 c 8.284,0 15,-6.716 15,-15 V 15 C 464,6.716 457.284,0 449,0 Z"
       style="fill:#eee1dc"
       inkscape:connector-curvature="0" /><g
       transform="matrix(1.043578,0,0,0.64220183,190.41857,357.06789)"
       style="fill:#7cb342;fill-opacity:1"
       id="g3912"><path
         id="path3910"
         d="m 202,169 h -79 c -8.284,0 -15,-6.716 -15,-15 V 75 c 0,-8.284 6.716,-15 15,-15 h 79 c 8.284,0 15,6.716 15,15 v 79 c 0,8.284 -6.716,15 -15,15 z m -64,-30 h 49 V 90 h -49 z"
         style="fill:#7cb342;fill-opacity:1"
         inkscape:connector-curvature="0" /></g><g
       transform="matrix(1.0299296,0,0,0.77777778,-190.96656,121.43333)"
       style="fill:#555a66;fill-opacity:1"
       id="g3950"><g
         style="fill:#555a66;fill-opacity:1"
         id="g3944"><path
           id="path3942"
           d="M 389,382.5 H 277 c -8.284,0 -15,-6.716 -15,-15 0,-8.284 6.716,-15 15,-15 h 112 c 8.284,0 15,6.716 15,15 0,8.284 -6.716,15 -15,15 z"
           style="fill:#555a66;fill-opacity:1"
           inkscape:connector-curvature="0" /></g><g
         style="fill:#555a66;fill-opacity:1"
         id="g3948"><path
           id="path3946"
           d="M 359.35,442.5 H 277 c -8.284,0 -15,-6.716 -15,-15 0,-8.284 6.716,-15 15,-15 h 82.349 c 8.284,0 15,6.716 15,15 0,8.284 -6.715,15 -14.999,15 z"
           style="fill:#555a66;fill-opacity:1"
           inkscape:connector-curvature="0" /></g></g><g
       transform="matrix(1.1011264,0,0,0.64693134,176.06904,265.54448)"
       style="fill:#d32f2f;fill-opacity:1"
       id="g3954"><path
         id="path3952"
         d="m 172.581,277.395 c -3.914,0 -7.829,-1.493 -10.815,-4.48 l -10.908,-10.908 c -5.973,-5.973 -5.973,-15.657 0,-21.63 5.972,-5.973 15.657,-5.973 21.63,0 l 0.093,0.093 43.612,-43.612 c 5.972,-5.973 15.657,-5.973 21.63,0 5.973,5.973 5.973,15.657 0,21.63 l -54.427,54.427 c -2.987,2.987 -6.901,4.48 -10.815,4.48 z"
         style="fill:#d32f2f;fill-opacity:1"
         inkscape:connector-curvature="0" /></g><g
       id="g1000"
       style="fill:#7cb342;fill-opacity:1"
       transform="matrix(1.043578,0,0,0.64220183,190.41857,240.66789)"><path
         inkscape:connector-curvature="0"
         style="fill:#7cb342;fill-opacity:1"
         d="m 202,169 h -79 c -8.284,0 -15,-6.716 -15,-15 V 75 c 0,-8.284 6.716,-15 15,-15 h 79 c 8.284,0 15,6.716 15,15 v 79 c 0,8.284 -6.716,15 -15,15 z m -64,-30 h 49 V 90 h -49 z"
         id="path998" /></g><g
       id="g1010"
       style="fill:#555a66;fill-opacity:1"
       transform="matrix(1.0299296,0,0,0.77777778,-190.96656,5.0333322)"><g
         id="g1004"
         style="fill:#555a66;fill-opacity:1"><path
           inkscape:connector-curvature="0"
           style="fill:#555a66;fill-opacity:1"
           d="M 389,382.5 H 277 c -8.284,0 -15,-6.716 -15,-15 0,-8.284 6.716,-15 15,-15 h 112 c 8.284,0 15,6.716 15,15 0,8.284 -6.716,15 -15,15 z"
           id="path1002" /></g><g
         id="g1008"
         style="fill:#555a66;fill-opacity:1"><path
           inkscape:connector-curvature="0"
           style="fill:#555a66;fill-opacity:1"
           d="M 359.35,442.5 H 277 c -8.284,0 -15,-6.716 -15,-15 0,-8.284 6.716,-15 15,-15 h 82.349 c 8.284,0 15,6.716 15,15 0,8.284 -6.715,15 -14.999,15 z"
           id="path1006" /></g></g><g
       id="g1014"
       style="fill:#d32f2f;fill-opacity:1"
       transform="matrix(1.1011264,0,0,0.64693134,176.06904,149.14448)"><path
         inkscape:connector-curvature="0"
         style="fill:#d32f2f;fill-opacity:1"
         d="m 172.581,277.395 c -3.914,0 -7.829,-1.493 -10.815,-4.48 l -10.908,-10.908 c -5.973,-5.973 -5.973,-15.657 0,-21.63 5.972,-5.973 15.657,-5.973 21.63,0 l 0.093,0.093 43.612,-43.612 c 5.972,-5.973 15.657,-5.973 21.63,0 5.973,5.973 5.973,15.657 0,21.63 l -54.427,54.427 c -2.987,2.987 -6.901,4.48 -10.815,4.48 z"
         id="path1012" /></g><g
       transform="matrix(1.043578,0,0,0.64220183,190.41857,124.26789)"
       style="fill:#7cb342;fill-opacity:1"
       id="g1018"><path
         id="path1016"
         d="m 202,169 h -79 c -8.284,0 -15,-6.716 -15,-15 V 75 c 0,-8.284 6.716,-15 15,-15 h 79 c 8.284,0 15,6.716 15,15 v 79 c 0,8.284 -6.716,15 -15,15 z m -64,-30 h 49 V 90 h -49 z"
         style="fill:#7cb342;fill-opacity:1"
         inkscape:connector-curvature="0" /></g><g
       transform="matrix(1.0299296,0,0,0.77777778,-190.96656,-111.36667)"
       style="fill:#555a66;fill-opacity:1"
       id="g1028"><g
         style="fill:#555a66;fill-opacity:1"
         id="g1022"><path
           id="path1020"
           d="M 389,382.5 H 277 c -8.284,0 -15,-6.716 -15,-15 0,-8.284 6.716,-15 15,-15 h 112 c 8.284,0 15,6.716 15,15 0,8.284 -6.716,15 -15,15 z"
           style="fill:#555a66;fill-opacity:1"
           inkscape:connector-curvature="0" /></g><g
         style="fill:#555a66;fill-opacity:1"
         id="g1026"><path
           id="path1024"
           d="M 359.35,442.5 H 277 c -8.284,0 -15,-6.716 -15,-15 0,-8.284 6.716,-15 15,-15 h 82.349 c 8.284,0 15,6.716 15,15 0,8.284 -6.715,15 -14.999,15 z"
           style="fill:#555a66;fill-opacity:1"
           inkscape:connector-curvature="0" /></g></g><g
       transform="matrix(1.1011264,0,0,0.64693134,176.06904,32.744482)"
       style="fill:#d32f2f;fill-opacity:1"
       id="g1032"><path
         id="path1030"
         d="m 172.581,277.395 c -3.914,0 -7.829,-1.493 -10.815,-4.48 l -10.908,-10.908 c -5.973,-5.973 -5.973,-15.657 0,-21.63 5.972,-5.973 15.657,-5.973 21.63,0 l 0.093,0.093 43.612,-43.612 c 5.972,-5.973 15.657,-5.973 21.63,0 5.973,5.973 5.973,15.657 0,21.63 l -54.427,54.427 c -2.987,2.987 -6.901,4.48 -10.815,4.48 z"
         style="fill:#d32f2f;fill-opacity:1"
         inkscape:connector-curvature="0" /></g><g
       id="g1036"
       style="fill:#7cb342;fill-opacity:1"
       transform="matrix(1.043578,0,0,0.64220183,190.41857,7.8678922)"><path
         inkscape:connector-curvature="0"
         style="fill:#7cb342;fill-opacity:1"
         d="m 202,169 h -79 c -8.284,0 -15,-6.716 -15,-15 V 75 c 0,-8.284 6.716,-15 15,-15 h 79 c 8.284,0 15,6.716 15,15 v 79 c 0,8.284 -6.716,15 -15,15 z m -64,-30 h 49 V 90 h -49 z"
         id="path1034" /></g><g
       id="g1046"
       style="fill:#555a66;fill-opacity:1"
       transform="matrix(1.0299296,0,0,0.77777778,-190.96656,-227.76667)"><g
         id="g1040"
         style="fill:#555a66;fill-opacity:1"><path
           inkscape:connector-curvature="0"
           style="fill:#555a66;fill-opacity:1"
           d="M 389,382.5 H 277 c -8.284,0 -15,-6.716 -15,-15 0,-8.284 6.716,-15 15,-15 h 112 c 8.284,0 15,6.716 15,15 0,8.284 -6.716,15 -15,15 z"
           id="path1038" /></g><g
         id="g1044"
         style="fill:#555a66;fill-opacity:1"><path
           inkscape:connector-curvature="0"
           style="fill:#555a66;fill-opacity:1"
           d="M 359.35,442.5 H 277 c -8.284,0 -15,-6.716 -15,-15 0,-8.284 6.716,-15 15,-15 h 82.349 c 8.284,0 15,6.716 15,15 0,8.284 -6.715,15 -14.999,15 z"
           id="path1042" /></g></g><g
       id="g1050"
       style="fill:#d32f2f;fill-opacity:1"
       transform="matrix(1.1011264,0,0,0.64693134,176.06904,-83.655516)"><path
         inkscape:connector-curvature="0"
         style="fill:#d32f2f;fill-opacity:1"
         d="m 172.581,277.395 c -3.914,0 -7.829,-1.493 -10.815,-4.48 l -10.908,-10.908 c -5.973,-5.973 -5.973,-15.657 0,-21.63 5.972,-5.973 15.657,-5.973 21.63,0 l 0.093,0.093 43.612,-43.612 c 5.972,-5.973 15.657,-5.973 21.63,0 5.973,5.973 5.973,15.657 0,21.63 l -54.427,54.427 c -2.987,2.987 -6.901,4.48 -10.815,4.48 z"
         id="path1048" /></g></g></g></svg>